<?xml version="1.0" encoding="utf-8"?>
<!-- Generator: Adobe Illustrator 25.4.1, SVG Export Plug-In . SVG Version: 6.00 Build 0)  -->
<svg version="1.1" id="圖層_1" xmlns="http://www.w3.org/2000/svg" xmlns:xlink="http://www.w3.org/1999/xlink" x="0px" y="0px"
	 viewBox="0 0 300 90" style="enable-background:new 0 0 300 90;" xml:space="preserve">
<style type="text/css">
	.st0{enable-background:new    ;}
</style>
<g>
	<path d="M18.01,44.59c-1.56-3.45-2.94-6.76-4.14-9.92c-1.2-3.16-2.22-6.03-3.05-8.6c-0.77,4.2-1.44,8.44-1.99,12.72
		c-0.55,4.28-1.22,8.37-2.01,12.27c-0.11,0.72-0.52,1.35-1.12,1.76c-0.42,0.23-0.89,0.37-1.38,0.4c-0.55,0.02-1.08-0.18-1.48-0.56
		c-0.34-0.39-0.52-0.91-0.51-1.43c0.03-1.19,0.11-2.38,0.26-3.56c0.2-1.63,0.44-3.46,0.71-5.5c0.3-2.07,0.64-4.14,1.04-6.41
		c0.39-2.27,0.75-4.4,1.12-6.46c0.37-2.06,0.78-4.01,1.12-5.7c0.34-1.7,0.69-3,0.97-3.92c0.19-1.34,1.34-2.34,2.69-2.34
		c0.85,0.03,1.63,0.49,2.07,1.22c0.75,1.15,1.37,2.38,1.83,3.66c0.67,1.64,1.47,3.7,2.39,6.21c0.92,2.52,2.16,5.49,3.66,8.85
		c1.46-3.39,2.63-6.33,3.51-8.8c0.88-2.47,1.68-4.59,2.29-6.21c0.46-1.28,1.07-2.5,1.83-3.62c0.46-0.76,1.27-1.22,2.15-1.24
		c0.65-0.05,1.29,0.17,1.78,0.61c0.47,0.48,0.79,1.08,0.92,1.73c0.23,0.95,0.52,2.28,0.87,3.98c0.33,1.66,0.69,3.53,1.04,5.6
		s0.8,4.14,1.17,6.41c0.37,2.27,0.71,4.38,1.04,6.41c0.32,2.03,0.55,3.89,0.71,5.55c0.18,1.25,0.28,2.51,0.3,3.77
		c0.02,0.52-0.19,1.01-0.58,1.36c-0.41,0.31-0.91,0.47-1.42,0.46c-0.48-0.05-0.95-0.2-1.37-0.46c-0.61-0.41-1.01-1.06-1.12-1.78
		c-0.4-1.94-0.78-3.94-1.12-6s-0.61-4.14-0.92-6.21c-0.31-2.07-0.54-4.25-0.81-6.37c-0.27-2.11-0.56-4.25-0.87-6.36
		c-0.45,1.36-0.95,2.85-1.52,4.48c-0.57,1.64-1.21,3.24-1.83,4.9c-0.62,1.66-1.31,3.24-1.99,4.83s-1.35,3.04-1.99,4.33
		c-0.22,0.43-0.55,0.79-0.96,1.04c-0.36,0.19-0.76,0.3-1.17,0.3c-0.44,0-0.88-0.1-1.27-0.3C18.49,45.41,18.19,45.03,18.01,44.59z
		 M68.15,53.45c-0.46,0.01-0.91-0.07-1.33-0.26c-0.29-0.19-0.54-0.46-0.7-0.77c-0.18-0.32-0.3-0.67-0.36-1.04
		c-0.06-0.43-0.11-0.9-0.14-1.38c-0.91,1.1-2.04,2-3.31,2.65c-1.59,0.76-3.34,1.11-5.09,1.04c-1.37-0.01-2.74-0.2-4.07-0.56
		c-1.37-0.43-2.63-1.13-3.72-2.07c-1.19-1.09-2.13-2.43-2.74-3.92c-0.77-1.98-1.12-4.09-1.04-6.21c-0.02-1.84,0.22-3.67,0.7-5.45
		c0.43-1.6,1.15-3.1,2.14-4.42c0.97-1.28,2.23-2.33,3.66-3.05c1.61-0.79,3.38-1.18,5.18-1.13c1.6-0.03,3.18,0.31,4.64,0.97
		c1.46,0.69,2.72,1.74,3.66,3.05c-0.02-0.41-0.02-0.81,0-1.22c0.02-0.4,0.1-0.8,0.25-1.17c0.16-0.36,0.43-0.67,0.77-0.87
		c0.41-0.26,0.89-0.38,1.38-0.35c0.53,0.01,1.04,0.23,1.42,0.61c0.56,0.76,0.83,1.7,0.77,2.64c0.1,1.8,0.17,3.42,0.21,4.83
		s0.09,2.91,0.09,4.43c0,1.86,0,3.58,0,5.18c0,1.59-0.12,3.22-0.26,4.98c-0.04,0.64-0.15,1.27-0.31,1.88
		c-0.06,0.37-0.2,0.72-0.4,1.04c-0.16,0.19-0.37,0.33-0.61,0.4C68.68,53.39,68.42,53.44,68.15,53.45z M65.41,40.52
		c0.06-1.49-0.22-2.96-0.82-4.33c-0.85-1.91-2.51-3.35-4.52-3.91c-0.83-0.23-1.69-0.35-2.55-0.36c-1.09-0.03-2.17,0.2-3.16,0.66
		c-0.83,0.43-1.54,1.06-2.07,1.83c-0.58,0.81-0.99,1.73-1.22,2.7c-0.25,1.1-0.38,2.23-0.37,3.35c0,3,0.65,5.2,1.94,6.62
		c1.38,1.45,3.31,2.23,5.31,2.14c1.16,0.03,2.31-0.2,3.36-0.66c0.9-0.44,1.68-1.09,2.29-1.88c0.62-0.82,1.08-1.76,1.33-2.75
		C65.24,42.82,65.4,41.68,65.41,40.52z M93.36,27.45c1.77-0.03,3.52,0.28,5.18,0.91c1.46,0.53,2.78,1.39,3.87,2.49
		c1.11,1.13,1.96,2.48,2.49,3.96c0.6,1.68,0.89,3.46,0.86,5.25c0.03,1.96-0.32,3.91-1.04,5.75c-0.6,1.62-1.53,3.1-2.74,4.33
		c-1.17,1.2-2.58,2.14-4.14,2.75c-1.67,0.66-3.45,0.98-5.25,0.96c-1.88,0.05-3.76-0.31-5.5-1.04c-1.51-0.68-2.86-1.67-3.96-2.9
		c-1.08-1.25-1.9-2.69-2.41-4.25c-0.55-1.62-0.83-3.33-0.82-5.04c-0.02-1.81,0.29-3.6,0.92-5.29c0.6-1.55,1.52-2.96,2.69-4.14
		c1.22-1.21,2.67-2.15,4.28-2.75c1.76-0.67,3.63-1.01,5.52-0.99L93.36,27.45z M92.8,49.19c1.23,0.03,2.44-0.21,3.56-0.71
		c0.94-0.47,1.76-1.15,2.39-1.99c0.64-0.81,1.11-1.74,1.38-2.74c0.3-1.06,0.46-2.16,0.46-3.26c0.01-1.09-0.15-2.17-0.46-3.21
		c-0.25-0.97-0.7-1.87-1.33-2.64c-0.6-0.77-1.39-1.36-2.29-1.73c-1.04-0.47-2.17-0.7-3.31-0.66c-1.19-0.03-2.37,0.2-3.46,0.66
		c-0.96,0.42-1.81,1.04-2.49,1.83c-0.67,0.79-1.17,1.71-1.48,2.69c-0.34,1.11-0.51,2.26-0.51,3.42c-0.09,2.18,0.57,4.32,1.88,6.06
		c1.43,1.57,3.49,2.4,5.6,2.28L92.8,49.19z M136.18,50.05c0.03,0.64-0.06,1.28-0.25,1.88c-0.1,0.39-0.29,0.74-0.56,1.04
		c-0.19,0.23-0.47,0.37-0.77,0.4c-0.27,0.07-0.54,0.1-0.82,0.1c-0.67,0.09-1.35-0.14-1.83-0.61c-0.38-0.87-0.57-1.81-0.56-2.75
		c-0.06-0.75-0.11-1.83-0.14-3.25c-0.03-1.42-0.07-3.11-0.1-5.09c-0.03-1.99,0-4.14,0-6.51V27.7c0.01-1.28,0.16-2.56,0.46-3.81
		c0.31-1.29,0.9-2.49,1.73-3.52c0.99-1.12,2.22-1.99,3.61-2.54c1.94-0.71,3.99-1.04,6.06-0.97c1.66-0.01,3.32,0.18,4.94,0.56
		c1.5,0.34,2.91,1,4.14,1.94c1.24,0.97,2.22,2.23,2.86,3.66c0.75,1.8,1.1,3.75,1.04,5.7c0.07,2.03-0.33,4.05-1.17,5.9
		c-0.75,1.52-1.89,2.8-3.31,3.72c-1.55,0.96-3.28,1.62-5.08,1.93c-2.13,0.39-4.3,0.58-6.47,0.57h-1.73c-0.58,0-1.22,0-1.94-0.1
		L136.18,50.05z M150.84,28.63c0.15-1.93-0.56-3.82-1.94-5.18c-1.28-1.12-3.4-1.69-6.36-1.69c-0.98-0.02-1.95,0.09-2.9,0.31
		c-0.72,0.13-1.39,0.47-1.94,0.96c-0.54,0.5-0.95,1.13-1.17,1.83c-0.26,0.96-0.39,1.95-0.36,2.95v3.96c0,1.46,0,2.84,0.05,4.14
		c0.79,0,1.65,0.05,2.6,0.05h2.74c1.06,0,2.11-0.07,3.16-0.21c1.05-0.11,2.07-0.43,3-0.92c0.9-0.53,1.66-1.28,2.19-2.18
		c0.64-1.25,0.93-2.65,0.86-4.05L150.84,28.63z M165.46,50.31c0-1.22-0.07-2.65-0.1-4.28c-0.03-1.63-0.07-3.4-0.1-5.29
		c-0.03-1.89,0-3.9-0.05-6v-6.48c0-2.4,0.02-4.47,0.05-6.21c0-1.74,0.12-3.16,0.26-4.28c0.08-0.86,0.34-1.69,0.76-2.44
		c0.29-0.51,0.83-0.82,1.41-0.81c0.56-0.01,1.11,0.19,1.53,0.56c0.56,0.74,0.83,1.67,0.76,2.6c0.13,2.44,0.23,4.99,0.26,7.63
		s0,5.18,0,7.73v4.43c0,1.39,0,2.78,0,4.14s-0.07,2.75-0.1,4.14c-0.03,1.39-0.08,2.9-0.16,4.43c-0.01,0.64-0.09,1.27-0.25,1.88
		c-0.07,0.38-0.23,0.73-0.47,1.04c-0.17,0.22-0.43,0.37-0.7,0.41c-0.28,0.07-0.58,0.1-0.87,0.09c-0.57,0.01-1.12-0.21-1.52-0.61
		c-0.53-0.8-0.79-1.75-0.75-2.7L165.46,50.31z M202.5,53.41c-0.46,0.02-0.91-0.07-1.33-0.26c-0.3-0.19-0.54-0.46-0.71-0.77
		c-0.18-0.32-0.29-0.67-0.35-1.04c-0.07-0.43-0.12-0.9-0.16-1.38c-0.91,1.1-2.04,2.01-3.31,2.65c-1.58,0.76-3.33,1.12-5.08,1.04
		c-1.37-0.01-2.74-0.19-4.07-0.56c-1.37-0.43-2.63-1.13-3.72-2.07c-1.19-1.09-2.13-2.43-2.75-3.92c-0.77-1.98-1.12-4.09-1.04-6.21
		c-0.01-1.84,0.23-3.67,0.71-5.45c0.43-1.59,1.15-3.09,2.13-4.42c0.97-1.28,2.23-2.33,3.66-3.05c1.61-0.79,3.38-1.18,5.18-1.13
		c1.6-0.02,3.18,0.31,4.63,0.97c1.46,0.69,2.72,1.74,3.66,3.05c0-0.41,0-0.82,0.05-1.22c0.02-0.4,0.11-0.8,0.26-1.17
		c0.16-0.36,0.42-0.66,0.76-0.87c0.41-0.26,0.89-0.38,1.38-0.35c0.54,0.01,1.05,0.23,1.43,0.61c0.56,0.76,0.83,1.7,0.76,2.64
		c0.1,1.8,0.18,3.42,0.21,4.83c0.03,1.42,0.1,2.91,0.1,4.43c0,1.86,0,3.58-0.05,5.18c-0.05,1.59-0.11,3.22-0.26,4.98
		c-0.04,0.64-0.14,1.27-0.3,1.88c-0.07,0.37-0.21,0.72-0.4,1.04c-0.16,0.19-0.37,0.33-0.61,0.4c-0.26,0.11-0.54,0.17-0.83,0.2
		L202.5,53.41z M199.74,40.48c0.05-1.48-0.22-2.96-0.81-4.33c-0.43-1.02-1.12-1.91-1.99-2.6c-0.74-0.62-1.61-1.07-2.55-1.31
		c-0.83-0.23-1.69-0.35-2.55-0.36c-1.07-0.02-2.13,0.21-3.11,0.66c-0.83,0.43-1.54,1.06-2.07,1.83c-0.57,0.82-0.99,1.73-1.22,2.7
		c-0.25,1.1-0.36,2.23-0.35,3.35c0,3,0.64,5.2,1.93,6.62c1.39,1.46,3.34,2.24,5.35,2.14c1.15,0.03,2.3-0.2,3.35-0.66
		c0.9-0.43,1.69-1.08,2.29-1.88c0.63-0.82,1.08-1.75,1.33-2.75c0.27-1.1,0.38-2.23,0.34-3.36L199.74,40.48z M227.85,31.53
		c-1.16-0.02-2.32,0.19-3.41,0.61c-1.17,0.51-2.3,1.12-3.36,1.83v3.16c0,1.36,0,2.85-0.05,4.47c-0.05,1.63-0.06,3.18-0.09,4.73
		s-0.1,2.87-0.21,3.92c-0.05,0.55-0.14,1.09-0.26,1.63c-0.04,0.32-0.16,0.61-0.35,0.87c-0.15,0.2-0.36,0.35-0.61,0.4
		c-0.32,0.02-0.65,0.02-0.97,0c-0.34,0.02-0.69,0.02-1.04,0c-0.23-0.06-0.44-0.18-0.61-0.35c-0.19-0.26-0.33-0.56-0.4-0.87
		c-0.12-0.5-0.21-1.01-0.26-1.52c-0.06-0.61-0.13-1.43-0.2-2.44c-0.06-1.01-0.07-2.12-0.1-3.31c-0.03-1.19-0.07-2.44-0.1-3.66v-3.42
		c0-1.73,0-3.11,0.05-4.22c0.05-1.12,0.17-2.07,0.3-2.9c0.05-0.95,0.33-1.88,0.82-2.7c0.35-0.38,0.86-0.58,1.38-0.56
		c0.7-0.06,1.4,0.21,1.88,0.71c0.51,0.68,0.79,1.49,0.81,2.34c1.21-1.05,2.57-1.93,4.03-2.6c1.41-0.63,2.93-0.96,4.47-0.96
		c1.39-0.01,2.76,0.35,3.98,1.04c1.31,0.78,2.36,1.93,3,3.31c0.48,0.97,0.83,1.99,1.04,3.05c0.24,1.14,0.41,2.3,0.51,3.46
		c0,0.54,0.07,1.09,0.1,1.63c0.03,0.54,0.05,1.04,0.05,1.69s0,1.23,0,1.98v2.65c0,1.04,0,2.07,0,3.11
		c-0.02,0.84-0.12,1.68-0.31,2.49c-0.1,0.6-0.36,1.16-0.76,1.63c-0.41,0.39-0.97,0.59-1.53,0.56c-1.16,0.17-2.25-0.63-2.42-1.79
		c-0.02-0.15-0.03-0.29-0.02-0.44v-1.31c0-0.78,0-1.68-0.05-2.7c-0.05-1.02,0-2.07,0-3.11s0-1.92-0.05-2.59
		c-0.05-0.67-0.08-1.12-0.14-1.73c-0.06-0.61-0.1-1.29-0.21-1.94c-0.06-0.62-0.17-1.23-0.3-1.83c-0.14-0.56-0.33-1.11-0.57-1.64
		c-0.29-0.92-0.93-1.69-1.78-2.14c-0.72-0.31-1.5-0.47-2.29-0.48L227.85,31.53z M261.06,43.84c-1.26,0-2.51-0.09-3.76-0.25
		c-1.45-0.25-2.87-0.66-4.22-1.22c0.17,1.84,1.09,3.53,2.54,4.68c1.82,1.16,3.96,1.72,6.11,1.58c0.85,0.01,1.7-0.05,2.55-0.16
		c0.78-0.13,1.46-0.27,2.07-0.4c0.61-0.13,1.04-0.31,1.52-0.41c0.4-0.13,0.81-0.19,1.22-0.2c0.5,0,0.98,0.16,1.38,0.46
		c0.47,0.31,0.72,0.86,0.66,1.42c0.01,0.82-0.38,1.59-1.04,2.07c-0.79,0.63-1.7,1.11-2.66,1.42c-1.03,0.31-2.09,0.52-3.16,0.61
		c-0.98,0.12-1.96,0.19-2.95,0.2c-1.88,0.02-3.75-0.25-5.55-0.81c-1.6-0.51-3.07-1.34-4.33-2.44c-1.25-1.15-2.22-2.57-2.85-4.14
		c-0.72-1.81-1.07-3.75-1.04-5.7c-0.03-1.91,0.29-3.81,0.96-5.6c0.62-1.55,1.56-2.96,2.75-4.14c1.16-1.13,2.55-1.99,4.07-2.55
		c2.98-1.03,6.21-1.14,9.26-0.3c1.28,0.34,2.49,0.91,3.57,1.68c1.04,0.74,1.89,1.72,2.48,2.85c0.67,1.21,1.01,2.59,0.97,3.98
		c0.03,1.2-0.23,2.39-0.77,3.46c-0.51,0.95-1.26,1.74-2.18,2.29c-1.03,0.64-2.16,1.08-3.34,1.31c-1.43,0.27-2.88,0.4-4.33,0.37
		L261.06,43.84z M260.66,32.12c-0.9,0-1.79,0.11-2.65,0.35c-0.84,0.19-1.63,0.54-2.34,1.04c-0.71,0.51-1.3,1.17-1.73,1.93
		c-0.52,0.91-0.85,1.92-0.96,2.96c1.2,0.54,2.45,0.95,3.74,1.22c1.28,0.2,2.57,0.3,3.86,0.3c1.51,0.09,3.02-0.16,4.43-0.71
		c0.99-0.52,1.57-1.58,1.47-2.69c0.01-1.18-0.49-2.31-1.37-3.11C264.25,32.52,262.76,32.12,260.66,32.12z M285.96,49.98
		c-0.1-2.13-0.17-4.66-0.21-7.58V32.33c-0.33,0-0.75,0-1.22,0h-1.04c-0.61,0-1.17,0-1.68,0c-0.44-0.03-0.87-0.14-1.27-0.31
		c-0.35-0.15-0.65-0.4-0.87-0.71c-0.22-0.42-0.32-0.89-0.3-1.37c0-1.64,1.22-2.44,3.66-2.44h1.38c0.46-0.01,0.91,0.03,1.37,0.09
		c0-1.79,0-3.24,0.1-4.32c0.03-0.84,0.15-1.68,0.36-2.49c0.1-0.47,0.37-0.88,0.76-1.17c0.39-0.22,0.83-0.33,1.27-0.31
		c0.5-0.02,0.99,0.19,1.33,0.56c0.36,0.41,0.62,0.9,0.77,1.43c0.21,0.63,0.33,1.28,0.35,1.94c0.07,0.69,0.1,1.38,0.1,2.07
		c0,0.48,0,0.92-0.05,1.33v1.04c0.48-0.13,0.98-0.2,1.48-0.2c0.51,0,1.04,0,1.47,0c1-0.06,2.01,0.15,2.9,0.61
		c0.69,0.37,1.09,1.11,1.04,1.88c0.02,0.47-0.11,0.93-0.36,1.31c-0.25,0.32-0.58,0.57-0.96,0.71c-0.44,0.19-0.9,0.31-1.38,0.36
		c-0.51,0-1.04,0.05-1.68,0.05h-1.17c-0.41,0-0.82-0.04-1.22-0.1v4.94c0,1.49,0,2.93-0.05,4.32c-0.05,1.39-0.07,2.72-0.1,4.08
		c-0.03,1.36-0.08,2.8-0.16,4.33c-0.01,0.63-0.09,1.26-0.25,1.87c-0.07,0.38-0.23,0.73-0.46,1.04c-0.19,0.22-0.44,0.38-0.71,0.46
		c-0.29,0.04-0.58,0.05-0.87,0.05c-0.58,0.01-1.15-0.21-1.57-0.61c-0.55-0.84-0.82-1.83-0.76-2.83V49.98z"/>
	<g class="st0">
		<path d="M22.39,62.44h2.36c0.85,0,1.46,0.23,1.81,0.68s0.53,1.09,0.53,1.91c0,0.77-0.18,1.4-0.54,1.91
			c-0.36,0.5-0.95,0.75-1.78,0.75h-1.7v4.81h-0.67V62.44z M24.62,67.17c0.62,0,1.07-0.16,1.35-0.49c0.28-0.33,0.42-0.88,0.42-1.64
			c0-0.54-0.06-0.96-0.17-1.26c-0.12-0.3-0.3-0.51-0.55-0.63c-0.25-0.12-0.6-0.19-1.04-0.19h-1.57v4.21H24.62z"/>
		<path d="M32.63,62.44h3.48v0.55h-2.8v4.04h2.3v0.52h-2.3v4.42h2.83v0.53h-3.52V62.44z"/>
		<path d="M43.08,62.98h-2.01v-0.55h4.65v0.55h-1.96v9.52h-0.67V62.98z"/>
		<path d="M59.26,62.44h0.78l2.12,10.06h-0.68l-0.52-2.78h-2.61l-0.53,2.78h-0.67L59.26,62.44z M60.88,69.22l-1.22-5.96l-1.2,5.96
			H60.88z"/>
		<path d="M67.72,62.44h2.2c0.94,0,1.6,0.26,1.99,0.78s0.58,1.22,0.58,2.12v4.17c0,0.95-0.19,1.68-0.57,2.21
			c-0.38,0.53-1.02,0.79-1.94,0.79h-2.26V62.44z M69.95,71.97c0.51,0,0.91-0.11,1.18-0.33c0.27-0.22,0.46-0.51,0.55-0.88
			c0.09-0.37,0.14-0.81,0.14-1.33v-4.05c0-0.8-0.13-1.4-0.4-1.8c-0.27-0.4-0.76-0.6-1.48-0.6h-1.53v8.98H69.95z"/>
		<path d="M78.71,71.85c-0.37-0.53-0.55-1.26-0.55-2.21v-4.4c0-0.93,0.19-1.65,0.56-2.16s1.02-0.76,1.92-0.76
			c0.89,0,1.53,0.26,1.91,0.77s0.57,1.23,0.57,2.15v4.41c0,0.94-0.18,1.68-0.55,2.2c-0.37,0.52-1.01,0.78-1.93,0.78
			S79.08,72.38,78.71,71.85z M82.05,71.49c0.26-0.39,0.39-0.96,0.39-1.7v-4.65c0-0.75-0.13-1.31-0.39-1.69s-0.73-0.57-1.41-0.57
			s-1.15,0.19-1.41,0.57c-0.26,0.38-0.39,0.94-0.39,1.69v4.65c0,0.75,0.13,1.32,0.39,1.71c0.26,0.38,0.73,0.58,1.41,0.58
			S81.79,71.88,82.05,71.49z"/>
		<path d="M89,62.44h2.36c0.85,0,1.46,0.23,1.81,0.68s0.53,1.09,0.53,1.91c0,0.77-0.18,1.4-0.54,1.91c-0.36,0.5-0.95,0.75-1.78,0.75
			h-1.7v4.81H89V62.44z M91.23,67.17c0.62,0,1.07-0.16,1.35-0.49C92.86,66.35,93,65.8,93,65.04c0-0.54-0.06-0.96-0.17-1.26
			c-0.12-0.3-0.3-0.51-0.55-0.63c-0.25-0.12-0.6-0.19-1.04-0.19h-1.57v4.21H91.23z"/>
		<path d="M100.58,62.98h-2.01v-0.55h4.65v0.55h-1.96v9.52h-0.67V62.98z"/>
		<path d="M108.63,62.44h0.67V72.5h-0.67V62.44z"/>
		<path d="M115.74,71.85c-0.37-0.53-0.55-1.26-0.55-2.21v-4.4c0-0.93,0.19-1.65,0.56-2.16s1.02-0.76,1.92-0.76
			c0.89,0,1.53,0.26,1.91,0.77s0.57,1.23,0.57,2.15v4.41c0,0.94-0.18,1.68-0.55,2.2c-0.37,0.52-1.01,0.78-1.93,0.78
			S116.11,72.38,115.74,71.85z M119.09,71.49c0.26-0.39,0.39-0.96,0.39-1.7v-4.65c0-0.75-0.13-1.31-0.39-1.69s-0.73-0.57-1.41-0.57
			s-1.15,0.19-1.41,0.57c-0.26,0.38-0.39,0.94-0.39,1.69v4.65c0,0.75,0.13,1.32,0.39,1.71c0.26,0.38,0.73,0.58,1.41,0.58
			S118.82,71.88,119.09,71.49z"/>
		<path d="M126.04,62.44h0.53l3.42,8.5v-8.5h0.6V72.5h-0.53l-3.42-8.51v8.51h-0.6V62.44z"/>
		<path d="M150.65,72.33c-0.36-0.21-0.63-0.49-0.81-0.84s-0.27-0.74-0.27-1.16c0-0.47,0.13-0.94,0.38-1.42s0.69-1.01,1.31-1.63
			c-0.48-0.77-0.81-1.34-0.98-1.72s-0.25-0.77-0.25-1.17c0-0.65,0.19-1.16,0.57-1.52c0.38-0.36,0.9-0.54,1.55-0.54
			c0.63,0,1.12,0.16,1.48,0.47c0.36,0.31,0.53,0.74,0.53,1.28c0,0.48-0.19,0.98-0.56,1.51c-0.38,0.53-0.93,1.12-1.67,1.77l2.19,3.45
			c0.26-0.33,0.49-0.76,0.68-1.3c0.19-0.54,0.29-0.99,0.29-1.37h0.61c0,0.46-0.11,0.98-0.33,1.58c-0.22,0.6-0.51,1.1-0.88,1.52
			c0.21,0.28,0.42,0.47,0.61,0.58c0.19,0.1,0.4,0.16,0.63,0.16v0.61c-0.07,0-0.16-0.01-0.27-0.02c-0.51-0.06-0.96-0.36-1.37-0.91
			c-0.27,0.29-0.58,0.53-0.94,0.71c-0.36,0.19-0.76,0.28-1.19,0.28C151.45,72.64,151.01,72.53,150.65,72.33z M152.89,71.87
			c0.28-0.14,0.57-0.35,0.86-0.65l-2.21-3.46c-0.48,0.51-0.82,0.97-1.01,1.37c-0.19,0.4-0.29,0.8-0.29,1.22
			c0,0.47,0.14,0.88,0.42,1.22c0.28,0.34,0.72,0.52,1.32,0.52C152.31,72.08,152.61,72.01,152.89,71.87z M153.04,65.44
			c0.32-0.47,0.48-0.93,0.48-1.38c0-0.37-0.12-0.66-0.37-0.86c-0.25-0.2-0.59-0.3-1.02-0.3c-0.47,0-0.83,0.14-1.08,0.42
			c-0.25,0.28-0.37,0.64-0.37,1.07c0,0.36,0.08,0.72,0.23,1.09c0.15,0.37,0.42,0.86,0.79,1.48
			C152.27,66.41,152.72,65.91,153.04,65.44z"/>
		<path d="M174.24,70.02l0.58-0.19c0.1,0.74,0.28,1.3,0.54,1.68c0.26,0.37,0.7,0.56,1.31,0.56c1.07,0,1.6-0.54,1.6-1.62
			c0-0.41-0.1-0.79-0.31-1.13s-0.54-0.74-0.99-1.19l-1.84-1.83c-0.59-0.59-0.88-1.22-0.88-1.91c0-0.65,0.2-1.16,0.6-1.52
			c0.4-0.36,0.94-0.54,1.61-0.54c0.72,0,1.28,0.19,1.67,0.58s0.61,1.03,0.67,1.94l-0.57,0.14c-0.06-0.74-0.22-1.27-0.48-1.61
			c-0.26-0.33-0.69-0.5-1.27-0.5c-0.48,0-0.87,0.12-1.16,0.37c-0.29,0.25-0.44,0.61-0.44,1.1c0,0.27,0.06,0.52,0.17,0.77
			c0.11,0.24,0.3,0.5,0.57,0.76l1.81,1.79c0.46,0.46,0.83,0.91,1.09,1.35c0.27,0.45,0.4,0.92,0.4,1.4c0,0.73-0.2,1.28-0.61,1.65
			c-0.41,0.37-0.95,0.56-1.64,0.56C175.18,72.62,174.37,71.76,174.24,70.02z"/>
		<path d="M184.47,62.44h3.48v0.55h-2.79v4.04h2.3v0.52h-2.3v4.42h2.83v0.53h-3.52V62.44z"/>
		<path d="M193.59,62.44h0.67v9.53h3.04v0.53h-3.71V62.44z"/>
		<path d="M202.44,62.44h3.48v0.55h-2.79v4.04h2.3v0.52h-2.3v4.42h2.83v0.53h-3.52V62.44z"/>
		<path d="M211.88,71.84c-0.36-0.54-0.53-1.28-0.53-2.23v-4.27c0-0.95,0.18-1.69,0.55-2.22c0.36-0.53,1-0.79,1.9-0.79
			c0.84,0,1.43,0.24,1.78,0.73s0.52,1.19,0.52,2.11v0.51h-0.65v-0.51c0-0.77-0.12-1.34-0.36-1.71c-0.24-0.37-0.67-0.56-1.29-0.56
			c-0.68,0-1.14,0.2-1.39,0.6c-0.25,0.4-0.37,0.99-0.37,1.78v4.45c0,0.79,0.13,1.39,0.39,1.78s0.72,0.59,1.38,0.59
			c0.63,0,1.06-0.19,1.3-0.58c0.24-0.38,0.35-0.95,0.35-1.71v-0.61h0.65v0.5c0,0.95-0.17,1.67-0.51,2.19
			c-0.34,0.51-0.94,0.77-1.79,0.77C212.87,72.64,212.23,72.37,211.88,71.84z"/>
		<path d="M223.18,62.98h-2.01v-0.55h4.65v0.55h-1.96v9.52h-0.67V62.98z"/>
		<path d="M237.38,70.02l0.58-0.19c0.1,0.74,0.28,1.3,0.54,1.68c0.26,0.37,0.7,0.56,1.31,0.56c1.07,0,1.6-0.54,1.6-1.62
			c0-0.41-0.1-0.79-0.31-1.13s-0.54-0.74-0.99-1.19l-1.84-1.83c-0.59-0.59-0.88-1.22-0.88-1.91c0-0.65,0.2-1.16,0.6-1.52
			c0.4-0.36,0.94-0.54,1.61-0.54c0.72,0,1.28,0.19,1.67,0.58s0.61,1.03,0.67,1.94l-0.57,0.14c-0.06-0.74-0.22-1.27-0.48-1.61
			c-0.26-0.33-0.69-0.5-1.27-0.5c-0.48,0-0.87,0.12-1.16,0.37c-0.29,0.25-0.44,0.61-0.44,1.1c0,0.27,0.06,0.52,0.17,0.77
			c0.11,0.24,0.3,0.5,0.57,0.76l1.81,1.79c0.46,0.46,0.83,0.91,1.09,1.35c0.27,0.45,0.4,0.92,0.4,1.4c0,0.73-0.2,1.28-0.61,1.65
			c-0.41,0.37-0.95,0.56-1.64,0.56C238.32,72.62,237.51,71.76,237.38,70.02z"/>
		<path d="M247.62,62.44h0.68v4.54h3.53v-4.54h0.67V72.5h-0.67v-5.01h-3.53v5.01h-0.68V62.44z"/>
		<path d="M258.93,71.85c-0.37-0.53-0.55-1.26-0.55-2.21v-4.4c0-0.93,0.19-1.65,0.57-2.16c0.38-0.51,1.02-0.76,1.92-0.76
			c0.89,0,1.53,0.26,1.91,0.77s0.57,1.23,0.57,2.15v4.41c0,0.94-0.18,1.68-0.55,2.2c-0.37,0.52-1.01,0.78-1.93,0.78
			S259.3,72.38,258.93,71.85z M262.27,71.49c0.26-0.39,0.39-0.96,0.39-1.7v-4.65c0-0.75-0.13-1.31-0.39-1.69s-0.73-0.57-1.41-0.57
			s-1.15,0.19-1.41,0.57s-0.39,0.94-0.39,1.69v4.65c0,0.75,0.13,1.32,0.39,1.71s0.73,0.58,1.41,0.58S262.01,71.88,262.27,71.49z"/>
		<path d="M269.22,62.44h2.36c0.85,0,1.46,0.23,1.81,0.68c0.35,0.46,0.53,1.09,0.53,1.91c0,0.77-0.18,1.4-0.54,1.91
			s-0.95,0.75-1.78,0.75h-1.7v4.81h-0.67V62.44z M271.44,67.17c0.62,0,1.07-0.16,1.35-0.49c0.28-0.33,0.42-0.88,0.42-1.64
			c0-0.54-0.06-0.96-0.17-1.26s-0.3-0.51-0.55-0.63c-0.25-0.12-0.6-0.19-1.04-0.19h-1.57v4.21H271.44z"/>
	</g>
</g>
</svg>
