<svg width="63" height="63" viewBox="0 0 63 63" fill="none" xmlns="http://www.w3.org/2000/svg">
<circle cx="31.5" cy="33.5" r="24.5" fill="white"/>
<path d="M31.5 5.25C17.0362 5.25 5.25 17.0362 5.25 31.5C5.25 45.9638 17.0362 57.75 31.5 57.75C45.9638 57.75 57.75 45.9638 57.75 31.5C57.75 17.0362 45.9638 5.25 31.5 5.25ZM42 33.4688H33.4688V42C33.4688 43.0762 32.5762 43.9688 31.5 43.9688C30.4238 43.9688 29.5312 43.0762 29.5312 42V33.4688H21C19.9238 33.4688 19.0312 32.5762 19.0312 31.5C19.0312 30.4238 19.9238 29.5312 21 29.5312H29.5312V21C29.5312 19.9238 30.4238 19.0312 31.5 19.0312C32.5762 19.0312 33.4688 19.9238 33.4688 21V29.5312H42C43.0762 29.5312 43.9688 30.4238 43.9688 31.5C43.9688 32.5762 43.0762 33.4688 42 33.4688Z" fill="#959595"/>
</svg>
